<svg viewBox="0 0 73.22 73.22" xmlns="http://www.w3.org/2000/svg"><g fill="#ccc"><path d="m36.61 56.69a1.18 1.18 0 0 1 1.18 1.18h2.37a3.53 3.53 0 0 0 -2.37-3.32v-2.55h-2.36v2.36h-2.36v3.54a3.55 3.55 0 0 0 3.54 3.54 1.18 1.18 0 0 1 1.18 1.18v1.19h-1.18a1.18 1.18 0 0 1 -1.18-1.19h-2.36a3.54 3.54 0 0 0 2.36 3.33v2.55h2.36v-2.36h2.37v-3.55a3.55 3.55 0 0 0 -3.55-3.54 1.18 1.18 0 0 1 -1.18-1.18v-1.18z"/><path d="m41.34 48.14v-4.75a3.57 3.57 0 0 1 1.12-2.59l15.88-14.8h.71a4.73 4.73 0 1 0 0-9.45h-9.95a12.72 12.72 0 0 0 .5-3.55 13 13 0 0 0 -26 0 12.68 12.68 0 0 0 .51 3.54h-10a4.73 4.73 0 0 0 0 9.45h.72l15.93 14.81a3.54 3.54 0 0 1 1.13 2.59v4.75a13 13 0 1 0 9.45 0zm-15.34-35.14a10.63 10.63 0 0 1 21.26 0 10.34 10.34 0 0 1 -.62 3.54h-6.48v-1.19a3.55 3.55 0 0 0 -3.55-3.54 1.18 1.18 0 0 1 -1.18-1.18v-1.18h1.18a1.18 1.18 0 0 1 1.18 1.18h2.37a3.55 3.55 0 0 0 -2.37-3.33v-2.58h-2.36v2.37h-2.36v3.54a3.55 3.55 0 0 0 3.54 3.54 1.18 1.18 0 0 1 1.18 1.18v1.18h-1.18a1.18 1.18 0 0 1 -1.18-1.18h-2.36a3.3 3.3 0 0 0 .22 1.18h-6.69a10.55 10.55 0 0 1 -.6-3.53zm-14.19 8.26a2.36 2.36 0 0 1 2.36-2.36h44.88a2.36 2.36 0 0 1 0 4.72h-44.88a2.36 2.36 0 0 1 -2.36-2.36zm20.56 17.81-14.02-13.07h36.52l-14 13.09a5.94 5.94 0 0 0 -1.87 4.3v4.08a12.22 12.22 0 0 0 -4.72 0v-4.08a5.9 5.9 0 0 0 -1.88-4.32zm4.24 31.79a10.63 10.63 0 1 1 10.63-10.63 10.64 10.64 0 0 1 -10.63 10.63z"/><path d="m44.88 60.23a1.18 1.18 0 1 1 -1.18-1.18 1.18 1.18 0 0 1 1.18 1.18z"/><path d="m30.71 60.23a1.19 1.19 0 1 1 -1.18-1.18 1.18 1.18 0 0 1 1.18 1.18z"/><path d="m44.88 13a1.18 1.18 0 1 1 -1.18-1.18 1.18 1.18 0 0 1 1.18 1.18z"/><path d="m30.71 13a1.19 1.19 0 1 1 -1.18-1.18 1.18 1.18 0 0 1 1.18 1.18z"/><path d="m32.35 35.45 1.55-1.78 1.78 1.56-1.55 1.77z"/><path d="m28.76 32.37 1.55-1.78 1.78 1.56-1.56 1.77z"/><path d="m25.2 29.25 1.56-1.77 1.77 1.52-1.53 1.81z"/><path d="m70.86 39.19v-22.66h-2.36v22.66a3.54 3.54 0 1 0 2.36 0zm-1.18 4.51a1.18 1.18 0 1 1 1.18-1.18 1.18 1.18 0 0 1 -1.18 1.18z"/><path d="m63.78 51v-22.66h-2.37v22.66a3.55 3.55 0 1 0 2.37 0zm-1.19 4.51a1.18 1.18 0 1 1 1.19-1.18 1.18 1.18 0 0 1 -1.19 1.18z"/><path d="m4.72 39.19v-22.66h-2.36v22.66a3.55 3.55 0 1 0 2.36 0zm-1.18 4.51a1.18 1.18 0 1 1 1.18-1.18 1.18 1.18 0 0 1 -1.18 1.18z"/><path d="m11.81 51v-22.66h-2.36v22.66a3.54 3.54 0 1 0 2.36 0zm-1.18 4.51a1.18 1.18 0 1 1 1.18-1.18 1.18 1.18 0 0 1 -1.18 1.18z"/></g></svg>